<svg xmlns="http://www.w3.org/2000/svg" viewBox="0 0 512 512">
  <path fill="currentColor" d="M480 32c0-12.9-7.8-24.6-19.8-29.6s-25.7-2.2-34.9 6.9l-128 128c-2.9 2.9-7.2 2.9-10.1 0l-128-128C150.2-.2 140.5-1.7 128.5 3.3S108 20.1 108 33v94.9c0 15.1-5.5 29.7-15.4 40.8L9.4 260.8C3.3 268.1 0 277.6 0 287.4V424c0 22.1 17.9 40 40 40s40-17.9 40-40V315.2l83.1-92.3c21.6-24 33.4-55.1 33.4-87.4V64c21.3 0 64 0 85.3 0V135.5c0 32.3 11.8 63.4 33.4 87.4L398.3 315.2V424c0 22.1 17.9 40 40 40s40-17.9 40-40V287.4c0-9.8-3.3-19.3-9.4-26.6l-83.1-92.1c-9.9-11.1-15.4-25.7-15.4-40.8V33c0-12.9-7.8-24.6-19.8-29.6s-25.7-2.2-34.9 6.9l-128 128c-2.9 2.9-7.2 2.9-10.1 0L160 32z"/>
</svg> 