<svg xmlns="http://www.w3.org/2000/svg" viewBox="0 0 640 512">
  <path fill="#2496ed" d="M349.9 236.3h-66.1v-59.4h66.1v59.4zm0-204.3h-66.1v60.7h66.1V32zm78.2 144.8H362v59.4h66.1v-59.4zm-156.3-72.1h-66.1v60.1h66.1v-60.1zm78.1 0h-66.1v60.1h66.1v-60.1zm276.8 100c-14.4-9.7-47.6-13.2-73.1-8.4-3.3-24.7-9.4-46.2-26.5-58.6-5.1-3.7-11.9-5.8-19.4-4.1-7.9 1.8-14.2 7.5-17.7 15.3-7.4 16.2-6.8 70.5-6.8 70.5-4.8 35.8-22.6 66.6-52.6 87.8-58.7 41.6-155.4 36.9-211.4 1.4-9.1-5.7-15.3-15.4-17.8-26.3-4.9-21.5-4.6-70.7 6.6-94.2 17.3-36.5 54.4-86.5 119.9-110.8 21.6-8 49.6-9.7 71.5-2.6"/>
</svg> 