<svg xmlns="http://www.w3.org/2000/svg" viewBox="0 0 640 512">
  <path fill="currentColor" d="M320 32c-8.1 0-16.1 1.4-23.7 4.1L15.8 137.4C6.3 140.9 0 149.9 0 160s6.3 19.1 15.8 22.6l57.9 20.9C57.3 229.3 48 259.8 48 291.9v28.1c0 28.4-10.8 57.7-22.3 80.8c-6.5 13-13.9 25.8-22.5 37.6C0 442.7-.9 448.3 .9 453.4s6 8.9 11.2 10.2l64 16c4.2 1.1 8.7 .3 12.4-2s6.3-6.1 7.1-10.4c8.6-42.8 4.3-81.2-2.1-108.7C90.3 344.3 86 329.8 86 316.3V291.9c0-30.2 10.2-58.7 27.9-81.5c12.9-15.5 29.6-28 49.2-35.7l157-56.4c7.6-2.7 15.6-4.1 23.9-4.1s16.3 1.4 23.9 4.1L624.2 182.6c9.5 3.4 15.8 12.5 15.8 22.6s-6.3 19.1-15.8 22.6L343.7 308.7c-7.6 2.7-15.6 4.1-23.7 4.1s-16.1-1.4-23.7-4.1L166.8 248.9c-10.3-3.7-21.8-3.7-32.1 0s-18.3 10.1-23.8 18.5s-8.5 18.3-8.5 28.1v20.9c0 7.8 4.5 14.8 11.6 18.2l6.8 3.4c2.5 1.2 5.4 1.9 8.1 1.9c3.5 0 7.1-1 10.1-2.8l90.4-54.2c14.3-8.6 32.4-4.1 40.4 10.4s4.2 32.8-10.2 40.6L168 348.2c-18.3 11-39.4 14.2-59.8 8.7s-38.1-19.4-48.8-37.4c-5.9-9.9-9.1-21.4-9.1-33.1V265.5c0-9.6 2.4-19.1 7.1-27.8s11.4-16.2 19.4-22.2l67.2-50.7c3.9-2.9 8.7-4.3 13.6-4.3c6.7 0 13.1 2.9 17.5 8.1s6.6 12.1 5.8 18.9c-.2 1.8-.2 3.6-.2 5.4v299.5c0 26.5 21.5 48 48 48s48-21.5 48-48V215.4l35.7 16.1c23.1 10.4 49.9 6.3 69.3-10.6s29.4-43.4 23.5-69.8L416 96c0-53-43-96-96-96z"/>
</svg> 