<svg xmlns="http://www.w3.org/2000/svg" viewBox="0 0 512 512">
  <path fill="currentColor" d="M256 80C141.1 80 48 173.1 48 288V352c0 17.7 14.3 32 32 32s32-14.3 32-32V288c0-88.4 71.6-160 160-160s160 71.6 160 160v64c0 17.7 14.3 32 32 32s32-14.3 32-32V288C464 173.1 370.9 80 256 80zM144 288H128c-35.3 0-64 28.7-64 64v64c0 35.3 28.7 64 64 64h16c17.7 0 32-14.3 32-32V320c0-17.7-14.3-32-32-32zm224 0c-17.7 0-32 14.3-32 32V448c0 17.7 14.3 32 32 32h16c35.3 0 64-28.7 64-64V352c0-35.3-28.7-64-64-64H368z"/>
</svg> 