<svg xmlns="http://www.w3.org/2000/svg" viewBox="0 0 640 512">
  <path fill="currentColor" d="M392.8 1.2c-17-4.9-34.7 5-39.6 22l-128 448c-4.9 17 5 34.7 22 39.6s34.7-5 39.6-22l128-448c4.9-17-5-34.7-22-39.6zm80.6 120.1c-12.5 12.5-12.5 32.8 0 45.3L562.7 256l-89.4 89.4c-12.5 12.5-12.5 32.8 0 45.3s32.8 12.5 45.3 0l112-112c12.5-12.5 12.5-32.8 0-45.3l-112-112c-12.5-12.5-32.8-12.5-45.3 0zm-306.7 0c-12.5-12.5-32.8-12.5-45.3 0l-112 112c-12.5 12.5-12.5 32.8 0 45.3l112 112c12.5 12.5 32.8 12.5 45.3 0s12.5-32.8 0-45.3L77.3 256l89.4-89.4c12.5-12.5 12.5-32.8 0-45.3z"/>
  <path fill="currentColor" d="M0 336c0-26.5 21.5-48 48-48H592c26.5 0 48 21.5 48 48v96c0 26.5-21.5 48-48 48c-26.5 0-48-21.5-48-48v-48H96v48c0 26.5-21.5 48-48 48s-48-21.5-48-48V336z"/>
</svg> 