<svg xmlns="http://www.w3.org/2000/svg" viewBox="0 0 576 512">
  <path fill="currentColor" d="M0 80C0 53.5 21.5 32 48 32h96c26.5 0 48 21.5 48 48v96c0 26.5-21.5 48-48 48H48c-26.5 0-48-21.5-48-48V80zM64 96v64h64V96H64zM0 336c0-26.5 21.5-48 48-48h96c26.5 0 48 21.5 48 48v96c0 26.5-21.5 48-48 48H48c-26.5 0-48-21.5-48-48V336zm64 16v64h64V352H64zM384 80c0-26.5 21.5-48 48-48h96c26.5 0 48 21.5 48 48v96c0 26.5-21.5 48-48 48H432c-26.5 0-48-21.5-48-48V80zm64 16v64h64V96H448zM384 336c0-26.5 21.5-48 48-48h96c26.5 0 48 21.5 48 48v96c0 26.5-21.5 48-48 48H432c-26.5 0-48-21.5-48-48V336zm64 16v64h64V352H448zM224 144c0-8.8 7.2-16 16-16h96c8.8 0 16 7.2 16 16s-7.2 16-16 16H240c-8.8 0-16-7.2-16-16zM240 368c-8.8 0-16-7.2-16-16s7.2-16 16-16h96c8.8 0 16 7.2 16 16s-7.2 16-16 16H240zM177 207c6.2-6.2 16.4-6.2 22.6 0l16 16c6.2 6.2 6.2 16.4 0 22.6l-16 16c-6.2 6.2-16.4 6.2-22.6 0s-6.2-16.4 0-22.6L182.1 234l-5.1-5.1c-6.2-6.2-6.2-16.4 0-22.6zM398.9 278l5.1 5.1c6.2 6.2 6.2 16.4 0 22.6s-16.4 6.2-22.6 0l-16-16c-6.2-6.2-6.2-16.4 0-22.6l16-16c6.2-6.2 16.4-6.2 22.6 0s6.2 16.4 0 22.6l-5.1 5.1z"/>
</svg> 