<svg xmlns="http://www.w3.org/2000/svg" viewBox="0 0 512 512">
  <path fill="currentColor" d="M403.8 34.4c12-5 25.7-2.2 34.9 6.9l64 64c6 6 9.4 14.1 9.4 22.6s-3.4 16.6-9.4 22.6l-64 64c-9.2 9.2-22.9 11.9-34.9 6.9s-19.8-16.6-19.8-29.6V160H352c-10.1 0-19.6 4.7-25.6 12.8L284 229.3 244 176l31.2-41.6C293.3 110.2 321.8 96 352 96h32V64c0-12.9 7.8-24.6 19.8-29.6zM164 282.7L204 336l-31.2 41.6C154.7 401.8 126.2 416 96 416H32c-17.7 0-32-14.3-32-32s14.3-32 32-32H96c10.1 0 19.6-4.7 25.6-12.8L164 282.7zM274.9 405c-12.2-13.2-11.2-33.6 2.1-45.8s33.6-11.2 45.8 2.1L384 432.5V352c0-17.7 14.3-32 32-32s32 14.3 32 32v80.5l61.3-70.2c12.2-13.2 32.6-14.3 45.8-2.1s14.3 32.6 2.1 45.8l-128 138.5c-12.4 13.4-33.6 13.4-46 0L274.9 405z"/>
</svg> 