<svg xmlns="http://www.w3.org/2000/svg" viewBox="0 0 512 512">
  <path fill="#61dafb" d="M418.2 177.2c-5.4-1.8-10.8-3.5-16.2-5.1.9-3.7 1.7-7.4 2.5-11.1 12.3-59.6 4.2-107.5-23.1-123.3-26.3-15.1-69.2.6-112.6 38.4-4.3 3.7-8.5 7.6-12.5 11.5-2.7-2.6-5.5-5.2-8.3-7.7-45.5-40.4-91.1-57.4-118.4-41.5-26.2 15.2-34 60.3-23 116.7 1.1 5.6 2.3 11.1 3.7 16.7-6.4 1.8-12.7 3.8-18.6 5.9C38.3 196.2 0 225.4 0 255.6c0 31.2 40.8 62.5 96.3 81.5 4.5 1.5 9 3 13.6 4.3-1.5 6-2.8 11.9-4 18-10.5 55.5-2.3 99.5 23.9 114.6 27 15.6 72.4-.4 116.6-39.1 3.5-3.1 7-6.3 10.5-9.7 4.4 4.3 9 8.4 13.6 12.4 42.8 36.8 85.1 51.7 111.2 36.6 27-15.6 35.8-62.9 24.4-120.5-.9-4.4-1.9-8.9-3-13.5 3.2-.9 6.3-1.9 9.4-2.9 57.7-19.1 99.5-50 99.5-81.7 0-30.3-39.4-59.7-93.8-78.4zM282.9 92.3c37.2-32.4 71.9-45.1 87.7-36 16.9 9.7 23.4 48.9 12.8 100.4-.7 3.4-1.4 6.7-2.3 10-22.2-5-44.7-8.6-67.3-10.6-13-24.2-26.7-46.9-41.6-67.2 3.2-2.8 6.5-5.6 10.7-8.6zM397.8 256c0 31.1-5 50.6-13.3 63.7-4.6 7.3-9.8 11.2-15.2 11.2-6.2 0-12.1-4.4-17.6-12.8-12.5-19.1-22.3-42.2-28.2-67.4 6-25.3 15.7-48.4 28.2-67.4 5.5-8.4 11.4-12.8 17.6-12.8 5.4 0 10.6 3.9 15.2 11.2 8.3 13.1 13.3 32.6 13.3 63.7zm-13.6-83.3c-12.4-21.6-26.5-29.4-42.7-29.4-16.2 0-30.3 7.8-42.7 29.4-12.4 21.6-19.9 49.8-19.9 82.8s7.5 61.2 19.9 82.8c12.4 21.6 26.5 29.4 42.7 29.4 16.2 0 30.3-7.8 42.7-29.4 12.4-21.6 19.9-49.8 19.9-82.8s-7.5-61.2-19.9-82.8z"/>
</svg> 